<svg version="1.1" id="Layer_1" xmlns="http://www.w3.org/2000/svg" xmlns:xlink="http://www.w3.org/1999/xlink" x="0px" y="0px" viewBox="0 0 925.2 190.2" style="enable-background:new 0 0 925.2 190.2;" xml:space="preserve">
 <style type="text/css">
  .st0{fill-rule:evenodd;clip-rule:evenodd;}
 </style>
 <g>
  <path class="st0" d="M827.1,5.3c0,0,63.8,1.1,96.8-2.7v21.5c0,0-3.1-12.1-27.8-9.4l-40.9,4.6v53.3H920v11.8h-65.1v60.7l30.5,2.9
		c5.8,0.4,28.9,3.8,39.9-13l-1.9,11.8c0,0-0.3,10.4-13.8,10.4h-85.6c0,0,7.7-5.8,7.7-21.8V48C831.6,48,832.3,25.1,827.1,5.3
		L827.1,5.3z">
  </path>
  <path class="st0" d="M678.7,3.9h31.8v116.3c0,0-0.3,31.4,35.9,31.4c36.2,0,42.9-30.6,42.9-49.4V29.2c0,0,1.1-17.5-9.7-25.4h25.9
		c0,0-2.4,9.7-2.4,22.4v88.5c0,0,5.1,47.6-58.7,47.6c-63.7,0-60.3-36.3-60.3-48.5V29.8C684.1,29.8,684.6,16.5,678.7,3.9L678.7,3.9z">
  </path>
  <path class="st0" d="M302.2,2.9h31.5l80.7,108.7l6.8-88.5c0,0,2.8-12.5-9.7-19.8h20.8v152.2h-16.5L326.9,38.2l-5.8,91.9
		c0,0-3,16.5,7.8,25.4h-20.5V24.1C308.4,24.1,308.2,13.7,302.2,2.9L302.2,2.9z">
  </path>
  <path class="st0" d="M461,3.7h32.8c0,0-4.6,23.5-4.6,53.3v74c0,0-0.3,20.9,1.6,25.6h-27.4c0,0,2-14.4,2-30.1V63.8
		C465.4,63.8,467.4,28.1,461,3.7L461,3.7z">
  </path>
  <path class="st0" d="M250.1,3.7h32.8c0,0-4.6,23.5-4.6,53.3v74c0,0-0.3,20.9,1.7,25.6h-27.6c0,0,2.1-14.4,2.1-30.1V63.8
		C254.5,63.8,256.5,28.1,250.1,3.7L250.1,3.7z">
  </path>
  <path class="st0" d="M145.5,4.9H176c0,0-2.6,49.9-2.6,65.5v73.4c0,0,14.7,4,33.3,4s26.1-6,32.3-16.1c0,0-0.7,15.5-8.1,24.4h-84.6
		c0,0,3.1-18.7,3.1-40.9V47C149.5,47,150.3,23.1,145.5,4.9L145.5,4.9z">
  </path>
  <path class="st0" d="M81.5,0c0,0,27.1,0.4,42.6,7.3v18c0,0-11.7-13.8-41.5-13.8S24.5,32.8,24.5,80.2s26.6,70.4,58.3,70.4
		c31.8,0,44.5-22.5,44.5-22.5s3.6,21.7-15.4,28.6c0,0-18.4,3.4-28.4,3.4S0,165,0,81.1C0-2.7,68,0,81.5,0L81.5,0z">
  </path>
  <path d="M606.5,157.9c33.8-8.8,58.9-40.3,58.9-77.7c0-44-20.4-80.1-77.8-80.1l0,0c-57.4,0-77.8,36-77.8,80.1
		c0,42.8,18.2,77.9,73,79.9c24.4,7.1,34.6,18.7,47.4,24.5c15.3,6.7,29.5,5.4,29.5,5.4V183c-14.2,0-19.4-9.6-29.5-17.7
		C624.3,160.6,614.3,158.5,606.5,157.9z M535.1,80.9c0-38.5,14.7-70,53-70c38.2,0,52.9,31.5,52.9,70c0,38.5-16.7,69.8-52.9,69.8
		C551.7,150.8,535.1,119.4,535.1,80.9z">
  </path>
 </g>
</svg>