<svg aria-hidden="true" class="default-outline" data-v-c61c7709="" fill="none" height="25" viewBox="0 0 185 25" width="185" xmlns="http://www.w3.org/2000/svg"><path clip-rule="evenodd" d="M175.435 0.972656L182.918 22.9817H184.857V23.7823H177.283V22.9817H179.808L177.745 16.8787H170.724L168.568 22.9817H170.262V23.7823H166.043V22.9817H167.674L175.435 0.972656ZM174.295 6.49017L171 16.0766H177.499L174.295 6.49017Z" fill="currentColor" fill-rule="evenodd"></path><path d="M104.762 23.7845H103.869L112.461 1.92944H113.354L104.762 23.7845Z" fill="currentColor"></path><path clip-rule="evenodd" d="M86.9964 2.73072H88.7207V17.8347L78.3748 1.92943H73.572V2.73072H75.2948V22.9839H72.3605L64.8775 0.973389L57.1166 22.9832H54.2759V2.73072H56.001V1.92943H51.4434L45.716 18.5437L39.7106 1.92943H35.246V2.73072H36.9703V22.9839H33.5536C32.5986 22.9519 31.7676 22.1209 31.7676 20.6716V17.4657C31.7676 15.0306 30.9671 12.9645 28.5033 12.2874C30.6587 11.6401 32.137 9.57479 32.137 7.38594C32.137 4.30354 29.827 1.93017 25.3319 1.93017H18.5565V2.73146H20.3113V22.9847H16.876L9.39234 0.973389L1.63216 22.9832H0V23.7837H4.21789V22.9832H2.52479L4.67945 16.8794H11.7008L13.7641 22.9832H11.2393V23.7837H25.7934V22.9832H23.1453V12.6877H24.9313C27.5185 12.6877 28.8422 13.7345 28.8422 16.2626V18.1427C28.8422 22.5822 31.7669 23.7837 33.3693 23.7837H39.4646V22.9832H37.741V5.04308L44.7929 24.0315L51.4746 4.45755V22.9839H49.7496V23.7845H59.7046V22.9839H58.0107L60.1669 16.8801H67.1882L69.2507 22.9839H66.7252V23.7845H77.7891V22.9839H76.067V3.84077L89.4922 24.4935V2.73072H93.6409V22.9839H91.9166V23.7845H98.1673V22.9839H96.4437V2.73072H98.1673V1.92943H86.9971L86.9964 2.73072ZM4.95742 16.0774L8.25295 6.49165L11.4548 16.0774H4.95742ZM24.9313 11.8864H23.1453V2.73072H24.6228C27.2405 2.73072 28.9961 4.3958 28.9961 7.5087C28.9961 9.23478 27.6411 11.8864 24.9313 11.8864ZM60.4433 16.0774L63.7381 6.49165L66.9408 16.0774H60.4433Z" fill="currentColor" fill-rule="evenodd"></path><path d="M121.212 12.8707C121.212 16.2931 121.52 23.5062 126.908 23.5062C129.804 23.5062 132.359 20.9483 132.359 16.7246H133.099V24.2457H132.39C132.329 23.8149 131.99 23.3217 131.343 23.3217C130.772 23.3217 130.188 23.5237 129.548 23.7449C128.774 24.0125 127.92 24.3082 126.908 24.3082C121.55 24.3082 117.578 18.4514 117.578 12.8707C117.578 7.81666 121.12 1.40486 127.032 1.40486C128.057 1.40486 128.84 1.80391 129.492 2.13612C129.957 2.37301 130.355 2.57592 130.727 2.57592C131.436 2.57592 131.774 2.1444 131.866 1.49637H132.605V8.43344H131.898C131.652 5.19555 129.465 2.20615 127.032 2.20615C121.489 2.20615 121.212 9.94302 121.212 12.8707Z" fill="currentColor"></path><path clip-rule="evenodd" d="M143.237 0.972656L135.477 22.9817H133.846V23.7823H138.064V22.9817H136.371L138.527 16.8787H145.547L147.611 22.9817H145.086V23.7823H152.661V22.9817H150.721L143.237 0.972656ZM138.803 16.0766L142.099 6.49017L145.301 16.0766H138.803Z" fill="currentColor" fill-rule="evenodd"></path><path d="M155.594 6.12034C155.594 8.40145 157.257 10.0048 160.86 10.9913C164.648 12.0694 166.742 13.3334 166.742 17.4024C166.742 20.208 165.049 24.3082 160.214 24.3082C158.763 24.3082 157.782 23.8056 156.976 23.3924C156.413 23.1039 155.934 22.8589 155.441 22.8589C154.732 22.8589 154.363 23.5367 154.209 24.2457H153.531V17.1264H154.27C154.27 19.1902 155.626 21.6268 157.658 22.7979C158.428 23.2294 159.32 23.5062 160.214 23.5062C163.355 23.5062 164.987 21.3791 164.987 19.5607C164.987 16.0148 162.924 15.0908 158.859 13.9807C155.81 13.1482 153.901 10.9608 153.901 7.81667C153.901 4.02449 156.703 1.40486 159.629 1.40486C161.28 1.40486 162.288 2.05993 163.002 2.52415C163.394 2.77891 163.698 2.97619 163.971 2.97619C164.632 2.97619 164.735 2.39026 164.826 1.87472L164.833 1.83564H165.51V8.15519H164.802C164.802 5.16504 162.555 2.20541 159.629 2.20541C157.472 2.20541 155.594 3.68523 155.594 6.12034Z" fill="currentColor"></path></svg>